# xmcd
#
# Track frame offsets:
#	150
#	13727
#	34360
#	49223
#	66304
#	88918
#	109166
#	137223
#	159767
#	178005
#	193687
#	215882
#	230676
#	251521
#	266934
#	284282
#	306765
#
# Disc length: 4283 seconds
#
# Revision: 1
# Processed by: cddbd v1.5.2PL0 Copyright (c) Steve Scherf et al.
# Submitted via: audiograbber 1.83.01
#
DISCID=0910b911
DTITLE=John Prine - Live At Singer Songwriter Festival Switzerland 1996
DYEAR=2017
DGENRE=Country
TTITLE0=Spanish Pipedream
TTITLE1=Six O'Clock News
TTITLE2=Fish And Whistle
TTITLE3=Picture Show
TTITLE4=You Got Gold
TTITLE5=All The Best
TTITLE6=Ain't Hurtin' Nobody
TTITLE7=Angel From Montgomery
TTITLE8=Donald And Lydia
TTITLE9=Dear Abby
TTITLE10=Unwed Fathers
TTITLE11=That's The Way The World Goes 'Round
TTITLE12=Sam Stone
TTITLE13=Please Don't Bury Me
TTITLE14=Speed Of The Sound Of Loneliness
TTITLE15=Paradise
TTITLE16=Souvenirs
EXTD=
EXTT0=
EXTT1=
EXTT2=
EXTT3=
EXTT4=
EXTT5=
EXTT6=
EXTT7=
EXTT8=
EXTT9=
EXTT10=
EXTT11=
EXTT12=
EXTT13=
EXTT14=
EXTT15=
EXTT16=
PLAYORDER=
